<mxfile host="app.diagrams.net" agent="Mozilla/5.0 (Windows NT 10.0; Win64; x64) AppleWebKit/537.36 (KHTML, like Gecko) Chrome/127.0.0.0 Safari/537.36" version="24.7.7">
  <diagram name="Page-1" id="R4OV7iDW6EWSdxZwjApe">
    <mxGraphModel dx="2918" dy="1992" grid="1" gridSize="10" guides="1" tooltips="1" connect="1" arrows="1" fold="1" page="1" pageScale="1" pageWidth="850" pageHeight="1100" math="0" shadow="0">
      <root>
        <mxCell id="0" />
        <mxCell id="1" parent="0" />
        <mxCell id="9XvTC1PJYjex0yPGkvMF-1" value="Actor" style="shape=umlActor;verticalLabelPosition=bottom;verticalAlign=top;html=1;outlineConnect=0;" parent="1" vertex="1">
          <mxGeometry x="-120" y="20" width="30" height="60" as="geometry" />
        </mxCell>
        <mxCell id="9XvTC1PJYjex0yPGkvMF-2" value="Product Service" style="rounded=0;whiteSpace=wrap;html=1;" parent="1" vertex="1">
          <mxGeometry x="320" y="40" width="80" height="40" as="geometry" />
        </mxCell>
        <mxCell id="9XvTC1PJYjex0yPGkvMF-3" value="Price Service" style="rounded=0;whiteSpace=wrap;html=1;" parent="1" vertex="1">
          <mxGeometry x="440" y="40" width="80" height="40" as="geometry" />
        </mxCell>
        <mxCell id="9XvTC1PJYjex0yPGkvMF-4" value="Product Detail Service" style="rounded=0;whiteSpace=wrap;html=1;" parent="1" vertex="1">
          <mxGeometry x="560" y="40" width="80" height="40" as="geometry" />
        </mxCell>
        <mxCell id="9XvTC1PJYjex0yPGkvMF-5" value="Cart Service" style="rounded=0;whiteSpace=wrap;html=1;" parent="1" vertex="1">
          <mxGeometry x="680" y="40" width="80" height="40" as="geometry" />
        </mxCell>
        <mxCell id="9XvTC1PJYjex0yPGkvMF-6" value="Notification Service" style="rounded=0;whiteSpace=wrap;html=1;" parent="1" vertex="1">
          <mxGeometry x="800" y="40" width="80" height="40" as="geometry" />
        </mxCell>
        <mxCell id="9XvTC1PJYjex0yPGkvMF-12" value="API Gateway" style="rounded=0;whiteSpace=wrap;html=1;" parent="1" vertex="1">
          <mxGeometry x="160" y="40" width="80" height="40" as="geometry" />
        </mxCell>
        <mxCell id="9XvTC1PJYjex0yPGkvMF-13" value="" style="endArrow=none;dashed=1;html=1;rounded=0;" parent="1" edge="1">
          <mxGeometry width="50" height="50" relative="1" as="geometry">
            <mxPoint x="-105" y="880" as="sourcePoint" />
            <mxPoint x="-105.5" y="80" as="targetPoint" />
          </mxGeometry>
        </mxCell>
        <mxCell id="9XvTC1PJYjex0yPGkvMF-14" value="" style="endArrow=none;dashed=1;html=1;rounded=0;" parent="1" edge="1">
          <mxGeometry width="50" height="50" relative="1" as="geometry">
            <mxPoint x="200" y="880" as="sourcePoint" />
            <mxPoint x="199.5" y="80" as="targetPoint" />
          </mxGeometry>
        </mxCell>
        <mxCell id="9XvTC1PJYjex0yPGkvMF-15" value="" style="endArrow=none;dashed=1;html=1;rounded=0;" parent="1" edge="1">
          <mxGeometry width="50" height="50" relative="1" as="geometry">
            <mxPoint x="359.5" y="880.6666259765625" as="sourcePoint" />
            <mxPoint x="359.5" y="-140" as="targetPoint" />
          </mxGeometry>
        </mxCell>
        <mxCell id="9XvTC1PJYjex0yPGkvMF-16" value="" style="endArrow=none;dashed=1;html=1;rounded=0;" parent="1" edge="1">
          <mxGeometry width="50" height="50" relative="1" as="geometry">
            <mxPoint x="480" y="880" as="sourcePoint" />
            <mxPoint x="479.5" y="79" as="targetPoint" />
          </mxGeometry>
        </mxCell>
        <mxCell id="9XvTC1PJYjex0yPGkvMF-17" value="" style="endArrow=none;dashed=1;html=1;rounded=0;" parent="1" edge="1">
          <mxGeometry width="50" height="50" relative="1" as="geometry">
            <mxPoint x="600" y="880" as="sourcePoint" />
            <mxPoint x="599.5" y="80" as="targetPoint" />
          </mxGeometry>
        </mxCell>
        <mxCell id="9XvTC1PJYjex0yPGkvMF-18" value="" style="endArrow=none;dashed=1;html=1;rounded=0;" parent="1" edge="1">
          <mxGeometry width="50" height="50" relative="1" as="geometry">
            <mxPoint x="720" y="880" as="sourcePoint" />
            <mxPoint x="719.5" y="80" as="targetPoint" />
          </mxGeometry>
        </mxCell>
        <mxCell id="9XvTC1PJYjex0yPGkvMF-19" value="" style="endArrow=none;dashed=1;html=1;rounded=0;" parent="1" edge="1">
          <mxGeometry width="50" height="50" relative="1" as="geometry">
            <mxPoint x="840" y="880" as="sourcePoint" />
            <mxPoint x="839.5" y="80" as="targetPoint" />
          </mxGeometry>
        </mxCell>
        <mxCell id="9XvTC1PJYjex0yPGkvMF-20" value="Add/ Remove&amp;nbsp;&lt;div&gt;product (Admin only)&lt;/div&gt;" style="text;html=1;align=center;verticalAlign=middle;resizable=0;points=[];autosize=1;strokeColor=none;fillColor=none;" parent="1" vertex="1">
          <mxGeometry x="-355" y="123" width="130" height="40" as="geometry" />
        </mxCell>
        <mxCell id="9XvTC1PJYjex0yPGkvMF-21" value="" style="endArrow=classic;html=1;rounded=0;" parent="1" edge="1">
          <mxGeometry width="50" height="50" relative="1" as="geometry">
            <mxPoint x="-100" y="120" as="sourcePoint" />
            <mxPoint x="200" y="120" as="targetPoint" />
          </mxGeometry>
        </mxCell>
        <mxCell id="9XvTC1PJYjex0yPGkvMF-22" value="POST /products" style="text;html=1;align=center;verticalAlign=middle;resizable=0;points=[];autosize=1;strokeColor=none;fillColor=none;" parent="1" vertex="1">
          <mxGeometry x="-35" y="93" width="110" height="30" as="geometry" />
        </mxCell>
        <mxCell id="9XvTC1PJYjex0yPGkvMF-23" value="" style="endArrow=classic;html=1;rounded=0;" parent="1" edge="1">
          <mxGeometry width="50" height="50" relative="1" as="geometry">
            <mxPoint x="200" y="140" as="sourcePoint" />
            <mxPoint x="360" y="140" as="targetPoint" />
          </mxGeometry>
        </mxCell>
        <mxCell id="9XvTC1PJYjex0yPGkvMF-24" value="POST /products" style="text;html=1;align=center;verticalAlign=middle;resizable=0;points=[];autosize=1;strokeColor=none;fillColor=none;" parent="1" vertex="1">
          <mxGeometry x="210" y="108" width="110" height="30" as="geometry" />
        </mxCell>
        <mxCell id="9XvTC1PJYjex0yPGkvMF-25" value="" style="endArrow=classic;html=1;rounded=0;" parent="1" edge="1">
          <mxGeometry width="50" height="50" relative="1" as="geometry">
            <mxPoint x="-100" y="180" as="sourcePoint" />
            <mxPoint x="200" y="180" as="targetPoint" />
          </mxGeometry>
        </mxCell>
        <mxCell id="9XvTC1PJYjex0yPGkvMF-26" value="DELETE /products/{id}" style="text;html=1;align=center;verticalAlign=middle;resizable=0;points=[];autosize=1;strokeColor=none;fillColor=none;" parent="1" vertex="1">
          <mxGeometry x="-50" y="150" width="140" height="30" as="geometry" />
        </mxCell>
        <mxCell id="9XvTC1PJYjex0yPGkvMF-27" value="" style="endArrow=classic;html=1;rounded=0;" parent="1" edge="1">
          <mxGeometry width="50" height="50" relative="1" as="geometry">
            <mxPoint x="200" y="200" as="sourcePoint" />
            <mxPoint x="360" y="200" as="targetPoint" />
          </mxGeometry>
        </mxCell>
        <mxCell id="9XvTC1PJYjex0yPGkvMF-28" value="DELETE /products/{id}" style="text;html=1;align=center;verticalAlign=middle;resizable=0;points=[];autosize=1;strokeColor=none;fillColor=none;" parent="1" vertex="1">
          <mxGeometry x="210" y="175" width="140" height="30" as="geometry" />
        </mxCell>
        <mxCell id="9XvTC1PJYjex0yPGkvMF-29" value="User View&lt;div&gt;&amp;nbsp;(All products)&lt;/div&gt;" style="text;html=1;align=center;verticalAlign=middle;resizable=0;points=[];autosize=1;strokeColor=none;fillColor=none;" parent="1" vertex="1">
          <mxGeometry x="-355" y="243" width="100" height="40" as="geometry" />
        </mxCell>
        <mxCell id="9XvTC1PJYjex0yPGkvMF-31" value="" style="endArrow=classic;html=1;rounded=0;" parent="1" edge="1">
          <mxGeometry width="50" height="50" relative="1" as="geometry">
            <mxPoint x="-100" y="262.5" as="sourcePoint" />
            <mxPoint x="200" y="262.5" as="targetPoint" />
          </mxGeometry>
        </mxCell>
        <mxCell id="9XvTC1PJYjex0yPGkvMF-32" value="GET /products" style="text;html=1;align=center;verticalAlign=middle;resizable=0;points=[];autosize=1;strokeColor=none;fillColor=none;" parent="1" vertex="1">
          <mxGeometry x="-35" y="238" width="100" height="30" as="geometry" />
        </mxCell>
        <mxCell id="9XvTC1PJYjex0yPGkvMF-33" value="" style="endArrow=classic;html=1;rounded=0;" parent="1" edge="1">
          <mxGeometry width="50" height="50" relative="1" as="geometry">
            <mxPoint x="200" y="280" as="sourcePoint" />
            <mxPoint x="360" y="280" as="targetPoint" />
          </mxGeometry>
        </mxCell>
        <mxCell id="9XvTC1PJYjex0yPGkvMF-34" value="GET /products" style="text;html=1;align=center;verticalAlign=middle;resizable=0;points=[];autosize=1;strokeColor=none;fillColor=none;" parent="1" vertex="1">
          <mxGeometry x="220" y="253" width="100" height="30" as="geometry" />
        </mxCell>
        <mxCell id="9XvTC1PJYjex0yPGkvMF-35" value="Product service fetches detail&lt;div&gt;&amp;nbsp;about the product like size/price/design&lt;/div&gt;" style="text;html=1;align=center;verticalAlign=middle;resizable=0;points=[];autosize=1;strokeColor=none;fillColor=none;" parent="1" vertex="1">
          <mxGeometry x="-420" y="320" width="230" height="40" as="geometry" />
        </mxCell>
        <mxCell id="9XvTC1PJYjex0yPGkvMF-36" value="" style="endArrow=classic;html=1;rounded=0;" parent="1" edge="1">
          <mxGeometry width="50" height="50" relative="1" as="geometry">
            <mxPoint x="-100" y="339.5" as="sourcePoint" />
            <mxPoint x="200" y="339.5" as="targetPoint" />
          </mxGeometry>
        </mxCell>
        <mxCell id="9XvTC1PJYjex0yPGkvMF-38" value="GET /products/{id}" style="text;html=1;align=center;verticalAlign=middle;resizable=0;points=[];autosize=1;strokeColor=none;fillColor=none;" parent="1" vertex="1">
          <mxGeometry x="-45" y="308" width="120" height="30" as="geometry" />
        </mxCell>
        <mxCell id="9XvTC1PJYjex0yPGkvMF-39" value="GET /products/{id}" style="text;html=1;align=center;verticalAlign=middle;resizable=0;points=[];autosize=1;strokeColor=none;fillColor=none;" parent="1" vertex="1">
          <mxGeometry x="220" y="325" width="120" height="30" as="geometry" />
        </mxCell>
        <mxCell id="9XvTC1PJYjex0yPGkvMF-40" value="GET /products/{id}" style="text;html=1;align=center;verticalAlign=middle;resizable=0;points=[];autosize=1;strokeColor=none;fillColor=none;" parent="1" vertex="1">
          <mxGeometry x="365" y="338" width="120" height="30" as="geometry" />
        </mxCell>
        <mxCell id="9XvTC1PJYjex0yPGkvMF-41" value="GET /products/{id}" style="text;html=1;align=center;verticalAlign=middle;resizable=0;points=[];autosize=1;strokeColor=none;fillColor=none;" parent="1" vertex="1">
          <mxGeometry x="485" y="350" width="120" height="30" as="geometry" />
        </mxCell>
        <mxCell id="9XvTC1PJYjex0yPGkvMF-42" value="" style="endArrow=classic;html=1;rounded=0;" parent="1" edge="1">
          <mxGeometry width="50" height="50" relative="1" as="geometry">
            <mxPoint x="200" y="354" as="sourcePoint" />
            <mxPoint x="360" y="354" as="targetPoint" />
          </mxGeometry>
        </mxCell>
        <mxCell id="9XvTC1PJYjex0yPGkvMF-44" value="" style="endArrow=classic;html=1;rounded=0;" parent="1" edge="1">
          <mxGeometry width="50" height="50" relative="1" as="geometry">
            <mxPoint x="360" y="370" as="sourcePoint" />
            <mxPoint x="480" y="370" as="targetPoint" />
          </mxGeometry>
        </mxCell>
        <mxCell id="9XvTC1PJYjex0yPGkvMF-45" value="" style="endArrow=classic;html=1;rounded=0;" parent="1" edge="1">
          <mxGeometry width="50" height="50" relative="1" as="geometry">
            <mxPoint x="360" y="380" as="sourcePoint" />
            <mxPoint x="600" y="380" as="targetPoint" />
          </mxGeometry>
        </mxCell>
        <mxCell id="9XvTC1PJYjex0yPGkvMF-47" value="Add/remove product details like&amp;nbsp;&lt;div&gt;size/price/design (Admin only)&lt;/div&gt;" style="text;html=1;align=center;verticalAlign=middle;resizable=0;points=[];autosize=1;strokeColor=none;fillColor=none;" parent="1" vertex="1">
          <mxGeometry x="-400" y="440" width="190" height="40" as="geometry" />
        </mxCell>
        <mxCell id="9XvTC1PJYjex0yPGkvMF-49" value="PUT /prices/{productId}" style="text;html=1;align=center;verticalAlign=middle;resizable=0;points=[];autosize=1;strokeColor=none;fillColor=none;" parent="1" vertex="1">
          <mxGeometry x="-35" y="440" width="150" height="30" as="geometry" />
        </mxCell>
        <mxCell id="9XvTC1PJYjex0yPGkvMF-50" value="" style="endArrow=classic;html=1;rounded=0;" parent="1" edge="1">
          <mxGeometry width="50" height="50" relative="1" as="geometry">
            <mxPoint x="-100" y="470" as="sourcePoint" />
            <mxPoint x="200" y="470" as="targetPoint" />
          </mxGeometry>
        </mxCell>
        <mxCell id="9XvTC1PJYjex0yPGkvMF-51" value="" style="endArrow=classic;html=1;rounded=0;" parent="1" edge="1">
          <mxGeometry width="50" height="50" relative="1" as="geometry">
            <mxPoint x="200" y="490" as="sourcePoint" />
            <mxPoint x="480" y="490" as="targetPoint" />
          </mxGeometry>
        </mxCell>
        <mxCell id="9XvTC1PJYjex0yPGkvMF-52" value="" style="endArrow=classic;html=1;rounded=0;" parent="1" edge="1">
          <mxGeometry width="50" height="50" relative="1" as="geometry">
            <mxPoint x="200" y="510" as="sourcePoint" />
            <mxPoint x="600" y="510" as="targetPoint" />
          </mxGeometry>
        </mxCell>
        <mxCell id="9XvTC1PJYjex0yPGkvMF-53" value="PUT /prices/{productId}" style="text;html=1;align=center;verticalAlign=middle;resizable=0;points=[];autosize=1;strokeColor=none;fillColor=none;" parent="1" vertex="1">
          <mxGeometry x="350" y="458" width="150" height="30" as="geometry" />
        </mxCell>
        <mxCell id="9XvTC1PJYjex0yPGkvMF-54" value="PUT /prices/{productId}" style="text;html=1;align=center;verticalAlign=middle;resizable=0;points=[];autosize=1;strokeColor=none;fillColor=none;" parent="1" vertex="1">
          <mxGeometry x="470" y="480" width="150" height="30" as="geometry" />
        </mxCell>
        <mxCell id="9XvTC1PJYjex0yPGkvMF-55" value="Add to Cart/ Checkout Functionality" style="text;html=1;align=center;verticalAlign=middle;resizable=0;points=[];autosize=1;strokeColor=none;fillColor=none;" parent="1" vertex="1">
          <mxGeometry x="-410" y="570" width="210" height="30" as="geometry" />
        </mxCell>
        <mxCell id="9XvTC1PJYjex0yPGkvMF-56" value="" style="endArrow=classic;html=1;rounded=0;" parent="1" edge="1">
          <mxGeometry width="50" height="50" relative="1" as="geometry">
            <mxPoint x="-100" y="580" as="sourcePoint" />
            <mxPoint x="200" y="580" as="targetPoint" />
          </mxGeometry>
        </mxCell>
        <mxCell id="9XvTC1PJYjex0yPGkvMF-57" value="POST /cart" style="text;html=1;align=center;verticalAlign=middle;resizable=0;points=[];autosize=1;strokeColor=none;fillColor=none;" parent="1" vertex="1">
          <mxGeometry x="-15" y="550" width="80" height="30" as="geometry" />
        </mxCell>
        <mxCell id="9XvTC1PJYjex0yPGkvMF-58" value="" style="endArrow=classic;html=1;rounded=0;" parent="1" edge="1">
          <mxGeometry width="50" height="50" relative="1" as="geometry">
            <mxPoint x="200" y="600" as="sourcePoint" />
            <mxPoint x="720" y="600" as="targetPoint" />
          </mxGeometry>
        </mxCell>
        <mxCell id="9XvTC1PJYjex0yPGkvMF-59" value="POST /cart" style="text;html=1;align=center;verticalAlign=middle;resizable=0;points=[];autosize=1;strokeColor=none;fillColor=none;" parent="1" vertex="1">
          <mxGeometry x="620" y="570" width="80" height="30" as="geometry" />
        </mxCell>
        <mxCell id="9XvTC1PJYjex0yPGkvMF-60" value="" style="endArrow=classic;html=1;rounded=0;" parent="1" edge="1">
          <mxGeometry width="50" height="50" relative="1" as="geometry">
            <mxPoint x="-100" y="640" as="sourcePoint" />
            <mxPoint x="200" y="640" as="targetPoint" />
          </mxGeometry>
        </mxCell>
        <mxCell id="9XvTC1PJYjex0yPGkvMF-61" value="POST /checkout" style="text;html=1;align=center;verticalAlign=middle;resizable=0;points=[];autosize=1;strokeColor=none;fillColor=none;" parent="1" vertex="1">
          <mxGeometry x="-30" y="610" width="110" height="30" as="geometry" />
        </mxCell>
        <mxCell id="9XvTC1PJYjex0yPGkvMF-62" value="" style="endArrow=classic;html=1;rounded=0;" parent="1" edge="1">
          <mxGeometry width="50" height="50" relative="1" as="geometry">
            <mxPoint x="200" y="660" as="sourcePoint" />
            <mxPoint x="720" y="660" as="targetPoint" />
          </mxGeometry>
        </mxCell>
        <mxCell id="9XvTC1PJYjex0yPGkvMF-63" value="POST /checkout" style="text;html=1;align=center;verticalAlign=middle;resizable=0;points=[];autosize=1;strokeColor=none;fillColor=none;" parent="1" vertex="1">
          <mxGeometry x="605" y="630" width="110" height="30" as="geometry" />
        </mxCell>
        <mxCell id="9XvTC1PJYjex0yPGkvMF-64" value="Notification to Users" style="text;html=1;align=center;verticalAlign=middle;resizable=0;points=[];autosize=1;strokeColor=none;fillColor=none;" parent="1" vertex="1">
          <mxGeometry x="-370" y="700" width="130" height="30" as="geometry" />
        </mxCell>
        <mxCell id="9XvTC1PJYjex0yPGkvMF-65" value="" style="endArrow=classic;html=1;rounded=0;" parent="1" edge="1">
          <mxGeometry width="50" height="50" relative="1" as="geometry">
            <mxPoint x="-100" y="720" as="sourcePoint" />
            <mxPoint x="200" y="720" as="targetPoint" />
          </mxGeometry>
        </mxCell>
        <mxCell id="9XvTC1PJYjex0yPGkvMF-66" value="POST /notify" style="text;whiteSpace=wrap;" parent="1" vertex="1">
          <mxGeometry x="-30" y="695" width="100" height="40" as="geometry" />
        </mxCell>
        <mxCell id="9XvTC1PJYjex0yPGkvMF-67" value="" style="endArrow=classic;html=1;rounded=0;" parent="1" source="9XvTC1PJYjex0yPGkvMF-69" edge="1">
          <mxGeometry width="50" height="50" relative="1" as="geometry">
            <mxPoint x="200" y="740" as="sourcePoint" />
            <mxPoint x="840" y="740" as="targetPoint" />
          </mxGeometry>
        </mxCell>
        <mxCell id="9XvTC1PJYjex0yPGkvMF-70" value="" style="endArrow=classic;html=1;rounded=0;entryX=1;entryY=0.75;entryDx=0;entryDy=0;" parent="1" target="9XvTC1PJYjex0yPGkvMF-69" edge="1">
          <mxGeometry width="50" height="50" relative="1" as="geometry">
            <mxPoint x="200" y="740" as="sourcePoint" />
            <mxPoint x="850" y="740" as="targetPoint" />
          </mxGeometry>
        </mxCell>
        <mxCell id="9XvTC1PJYjex0yPGkvMF-69" value="POST /notify" style="text;whiteSpace=wrap;" parent="1" vertex="1">
          <mxGeometry x="740" y="710" width="100" height="40" as="geometry" />
        </mxCell>
        <mxCell id="vXUDVahpjEWt88McgdD0-1" value="Actor" style="shape=umlActor;verticalLabelPosition=bottom;verticalAlign=top;html=1;outlineConnect=0;" parent="1" vertex="1">
          <mxGeometry x="1650" y="208" width="30" height="60" as="geometry" />
        </mxCell>
        <mxCell id="vXUDVahpjEWt88McgdD0-2" value="API Gateway" style="rounded=0;whiteSpace=wrap;html=1;" parent="1" vertex="1">
          <mxGeometry x="1750" y="168" width="120" height="200" as="geometry" />
        </mxCell>
        <mxCell id="vXUDVahpjEWt88McgdD0-23" style="edgeStyle=orthogonalEdgeStyle;rounded=0;orthogonalLoop=1;jettySize=auto;html=1;exitX=1;exitY=0.75;exitDx=0;exitDy=0;entryX=0;entryY=0.75;entryDx=0;entryDy=0;" parent="1" target="vXUDVahpjEWt88McgdD0-7" edge="1">
          <mxGeometry relative="1" as="geometry">
            <Array as="points">
              <mxPoint x="1920" y="265" />
              <mxPoint x="1920" y="345" />
            </Array>
            <mxPoint x="1870" y="265" as="sourcePoint" />
          </mxGeometry>
        </mxCell>
        <mxCell id="vXUDVahpjEWt88McgdD0-29" style="edgeStyle=orthogonalEdgeStyle;rounded=0;orthogonalLoop=1;jettySize=auto;html=1;exitX=1;exitY=0.5;exitDx=0;exitDy=0;entryX=0;entryY=0.5;entryDx=0;entryDy=0;" parent="1" target="vXUDVahpjEWt88McgdD0-4" edge="1">
          <mxGeometry relative="1" as="geometry">
            <mxPoint x="1870" y="250" as="sourcePoint" />
          </mxGeometry>
        </mxCell>
        <mxCell id="vXUDVahpjEWt88McgdD0-31" style="edgeStyle=orthogonalEdgeStyle;rounded=0;orthogonalLoop=1;jettySize=auto;html=1;exitX=1;exitY=1;exitDx=0;exitDy=0;entryX=0.5;entryY=1;entryDx=0;entryDy=0;" parent="1" target="vXUDVahpjEWt88McgdD0-8" edge="1">
          <mxGeometry relative="1" as="geometry">
            <mxPoint x="1900" y="740" as="targetPoint" />
            <mxPoint x="1869.9999999999995" y="271.33" as="sourcePoint" />
            <Array as="points">
              <mxPoint x="1901" y="271" />
              <mxPoint x="1901" y="560" />
              <mxPoint x="2580" y="560" />
            </Array>
          </mxGeometry>
        </mxCell>
        <mxCell id="vXUDVahpjEWt88McgdD0-32" style="edgeStyle=orthogonalEdgeStyle;rounded=0;orthogonalLoop=1;jettySize=auto;html=1;entryX=0;entryY=0.5;entryDx=0;entryDy=0;" parent="1" target="vXUDVahpjEWt88McgdD0-6" edge="1">
          <mxGeometry relative="1" as="geometry">
            <mxPoint x="2185" y="-12" as="targetPoint" />
            <mxPoint x="1870" y="238" as="sourcePoint" />
            <Array as="points">
              <mxPoint x="1905" y="238" />
              <mxPoint x="1905" y="-30" />
            </Array>
          </mxGeometry>
        </mxCell>
        <mxCell id="vXUDVahpjEWt88McgdD0-46" style="edgeStyle=orthogonalEdgeStyle;rounded=0;orthogonalLoop=1;jettySize=auto;html=1;exitX=1;exitY=0.75;exitDx=0;exitDy=0;entryX=0;entryY=0;entryDx=0;entryDy=52.5;entryPerimeter=0;" parent="1" source="vXUDVahpjEWt88McgdD0-4" target="vXUDVahpjEWt88McgdD0-19" edge="1">
          <mxGeometry relative="1" as="geometry">
            <mxPoint x="2470" y="204" as="targetPoint" />
          </mxGeometry>
        </mxCell>
        <mxCell id="vXUDVahpjEWt88McgdD0-4" value="Product Service" style="rounded=0;whiteSpace=wrap;html=1;" parent="1" vertex="1">
          <mxGeometry x="2080" y="160" width="120" height="60" as="geometry" />
        </mxCell>
        <mxCell id="vXUDVahpjEWt88McgdD0-45" value="" style="edgeStyle=orthogonalEdgeStyle;rounded=0;orthogonalLoop=1;jettySize=auto;html=1;" parent="1" source="vXUDVahpjEWt88McgdD0-5" target="vXUDVahpjEWt88McgdD0-18" edge="1">
          <mxGeometry relative="1" as="geometry" />
        </mxCell>
        <mxCell id="vXUDVahpjEWt88McgdD0-5" value="Price Service" style="rounded=0;whiteSpace=wrap;html=1;" parent="1" vertex="1">
          <mxGeometry x="2240" y="43" width="120" height="60" as="geometry" />
        </mxCell>
        <mxCell id="vXUDVahpjEWt88McgdD0-44" value="" style="edgeStyle=orthogonalEdgeStyle;rounded=0;orthogonalLoop=1;jettySize=auto;html=1;" parent="1" source="vXUDVahpjEWt88McgdD0-6" target="vXUDVahpjEWt88McgdD0-17" edge="1">
          <mxGeometry relative="1" as="geometry" />
        </mxCell>
        <mxCell id="vXUDVahpjEWt88McgdD0-6" value="Product Detail Service" style="rounded=0;whiteSpace=wrap;html=1;" parent="1" vertex="1">
          <mxGeometry x="2240" y="-60" width="120" height="60" as="geometry" />
        </mxCell>
        <mxCell id="vXUDVahpjEWt88McgdD0-7" value="Cart Service" style="rounded=0;whiteSpace=wrap;html=1;" parent="1" vertex="1">
          <mxGeometry x="1960" y="300" width="120" height="60" as="geometry" />
        </mxCell>
        <mxCell id="vXUDVahpjEWt88McgdD0-8" value="Notification Service" style="rounded=0;whiteSpace=wrap;html=1;" parent="1" vertex="1">
          <mxGeometry x="2520" y="440" width="120" height="60" as="geometry" />
        </mxCell>
        <mxCell id="vXUDVahpjEWt88McgdD0-9" style="edgeStyle=orthogonalEdgeStyle;rounded=0;orthogonalLoop=1;jettySize=auto;html=1;exitX=0.5;exitY=0.5;exitDx=0;exitDy=0;exitPerimeter=0;entryX=-0.028;entryY=0.353;entryDx=0;entryDy=0;entryPerimeter=0;" parent="1" source="vXUDVahpjEWt88McgdD0-1" target="vXUDVahpjEWt88McgdD0-2" edge="1">
          <mxGeometry relative="1" as="geometry" />
        </mxCell>
        <mxCell id="vXUDVahpjEWt88McgdD0-17" value="NoSQL" style="shape=cylinder3;whiteSpace=wrap;html=1;boundedLbl=1;backgroundOutline=1;size=15;" parent="1" vertex="1">
          <mxGeometry x="2480" y="-70" width="60" height="80" as="geometry" />
        </mxCell>
        <mxCell id="vXUDVahpjEWt88McgdD0-18" value="SQL" style="shape=cylinder3;whiteSpace=wrap;html=1;boundedLbl=1;backgroundOutline=1;size=15;" parent="1" vertex="1">
          <mxGeometry x="2480" y="33" width="60" height="80" as="geometry" />
        </mxCell>
        <mxCell id="vXUDVahpjEWt88McgdD0-19" value="SQL" style="shape=cylinder3;whiteSpace=wrap;html=1;boundedLbl=1;backgroundOutline=1;size=15;" parent="1" vertex="1">
          <mxGeometry x="2480" y="158" width="60" height="80" as="geometry" />
        </mxCell>
        <mxCell id="vXUDVahpjEWt88McgdD0-20" value="NoSQL" style="shape=cylinder3;whiteSpace=wrap;html=1;boundedLbl=1;backgroundOutline=1;size=15;" parent="1" vertex="1">
          <mxGeometry x="2480" y="275" width="60" height="80" as="geometry" />
        </mxCell>
        <mxCell id="vXUDVahpjEWt88McgdD0-33" style="edgeStyle=orthogonalEdgeStyle;rounded=0;orthogonalLoop=1;jettySize=auto;html=1;exitX=0.5;exitY=0;exitDx=0;exitDy=0;exitPerimeter=0;entryX=0;entryY=0.5;entryDx=0;entryDy=0;" parent="1" source="vXUDVahpjEWt88McgdD0-21" target="vXUDVahpjEWt88McgdD0-8" edge="1">
          <mxGeometry relative="1" as="geometry" />
        </mxCell>
        <mxCell id="vXUDVahpjEWt88McgdD0-21" value="Kafka" style="shape=cylinder3;whiteSpace=wrap;html=1;boundedLbl=1;backgroundOutline=1;size=15;rotation=90;" parent="1" vertex="1">
          <mxGeometry x="2370" y="440" width="60" height="80" as="geometry" />
        </mxCell>
        <mxCell id="vXUDVahpjEWt88McgdD0-26" value="" style="endArrow=classic;html=1;rounded=0;entryX=-0.028;entryY=0.644;entryDx=0;entryDy=0;entryPerimeter=0;" parent="1" target="vXUDVahpjEWt88McgdD0-5" edge="1">
          <mxGeometry width="50" height="50" relative="1" as="geometry">
            <mxPoint x="1960" y="240" as="sourcePoint" />
            <mxPoint x="2100" y="70" as="targetPoint" />
            <Array as="points">
              <mxPoint x="1960" y="80" />
            </Array>
          </mxGeometry>
        </mxCell>
        <mxCell id="vXUDVahpjEWt88McgdD0-28" value="" style="endArrow=none;html=1;rounded=0;" parent="1" edge="1">
          <mxGeometry width="50" height="50" relative="1" as="geometry">
            <mxPoint x="1870" y="243" as="sourcePoint" />
            <mxPoint x="1960" y="243" as="targetPoint" />
          </mxGeometry>
        </mxCell>
        <mxCell id="vXUDVahpjEWt88McgdD0-34" style="edgeStyle=orthogonalEdgeStyle;rounded=0;orthogonalLoop=1;jettySize=auto;html=1;exitX=1;exitY=0.75;exitDx=0;exitDy=0;entryX=0.5;entryY=1;entryDx=0;entryDy=0;entryPerimeter=0;" parent="1" source="vXUDVahpjEWt88McgdD0-7" target="vXUDVahpjEWt88McgdD0-21" edge="1">
          <mxGeometry relative="1" as="geometry" />
        </mxCell>
        <mxCell id="vXUDVahpjEWt88McgdD0-37" value="" style="endArrow=classic;html=1;rounded=0;exitX=1;exitY=0.5;exitDx=0;exitDy=0;entryX=0.328;entryY=1.038;entryDx=0;entryDy=0;entryPerimeter=0;" parent="1" source="vXUDVahpjEWt88McgdD0-4" target="vXUDVahpjEWt88McgdD0-21" edge="1">
          <mxGeometry width="50" height="50" relative="1" as="geometry">
            <mxPoint x="2250" y="210" as="sourcePoint" />
            <mxPoint x="2270" y="190" as="targetPoint" />
            <Array as="points">
              <mxPoint x="2280" y="190" />
              <mxPoint x="2280" y="470" />
            </Array>
          </mxGeometry>
        </mxCell>
        <mxCell id="vXUDVahpjEWt88McgdD0-40" value="" style="endArrow=classic;html=1;rounded=0;entryX=0.145;entryY=1;entryDx=0;entryDy=-4.35;entryPerimeter=0;" parent="1" target="vXUDVahpjEWt88McgdD0-21" edge="1">
          <mxGeometry width="50" height="50" relative="1" as="geometry">
            <mxPoint x="2306" y="103" as="sourcePoint" />
            <mxPoint x="2310" y="450" as="targetPoint" />
            <Array as="points">
              <mxPoint x="2306" y="290" />
              <mxPoint x="2306" y="459" />
            </Array>
          </mxGeometry>
        </mxCell>
        <mxCell id="vXUDVahpjEWt88McgdD0-41" value="" style="endArrow=classic;html=1;rounded=0;entryX=0.633;entryY=1.066;entryDx=0;entryDy=0;entryPerimeter=0;" parent="1" target="vXUDVahpjEWt88McgdD0-4" edge="1">
          <mxGeometry width="50" height="50" relative="1" as="geometry">
            <mxPoint x="2080" y="318" as="sourcePoint" />
            <mxPoint x="2160" y="318" as="targetPoint" />
            <Array as="points">
              <mxPoint x="2156" y="318" />
            </Array>
          </mxGeometry>
        </mxCell>
        <mxCell id="vXUDVahpjEWt88McgdD0-42" value="" style="endArrow=classic;html=1;rounded=0;exitX=1;exitY=0.25;exitDx=0;exitDy=0;" parent="1" source="vXUDVahpjEWt88McgdD0-4" edge="1">
          <mxGeometry width="50" height="50" relative="1" as="geometry">
            <mxPoint x="2210" y="170.5" as="sourcePoint" />
            <mxPoint x="2240" y="-4" as="targetPoint" />
            <Array as="points">
              <mxPoint x="2220" y="175" />
              <mxPoint x="2220" y="-4.5" />
            </Array>
          </mxGeometry>
        </mxCell>
        <mxCell id="vXUDVahpjEWt88McgdD0-43" value="" style="endArrow=classic;html=1;rounded=0;" parent="1" edge="1">
          <mxGeometry width="50" height="50" relative="1" as="geometry">
            <mxPoint x="2200" y="180" as="sourcePoint" />
            <mxPoint x="2270" y="103" as="targetPoint" />
            <Array as="points">
              <mxPoint x="2270" y="180" />
            </Array>
          </mxGeometry>
        </mxCell>
        <mxCell id="4BYogz1DlvUj1lyPhDPs-1" style="edgeStyle=orthogonalEdgeStyle;rounded=0;orthogonalLoop=1;jettySize=auto;html=1;exitX=1;exitY=0.5;exitDx=0;exitDy=0;entryX=0;entryY=0;entryDx=0;entryDy=52.5;entryPerimeter=0;" edge="1" parent="1" source="vXUDVahpjEWt88McgdD0-7" target="vXUDVahpjEWt88McgdD0-20">
          <mxGeometry relative="1" as="geometry" />
        </mxCell>
        <mxCell id="4BYogz1DlvUj1lyPhDPs-4" style="edgeStyle=orthogonalEdgeStyle;rounded=0;orthogonalLoop=1;jettySize=auto;html=1;exitX=0.25;exitY=0;exitDx=0;exitDy=0;entryX=0.5;entryY=1;entryDx=0;entryDy=0;" edge="1" parent="1" source="4BYogz1DlvUj1lyPhDPs-2" target="vXUDVahpjEWt88McgdD0-7">
          <mxGeometry relative="1" as="geometry" />
        </mxCell>
        <mxCell id="4BYogz1DlvUj1lyPhDPs-7" style="edgeStyle=orthogonalEdgeStyle;rounded=0;orthogonalLoop=1;jettySize=auto;html=1;exitX=0.75;exitY=0;exitDx=0;exitDy=0;" edge="1" parent="1" source="4BYogz1DlvUj1lyPhDPs-2">
          <mxGeometry relative="1" as="geometry">
            <mxPoint x="2330" y="110.00000000000023" as="targetPoint" />
          </mxGeometry>
        </mxCell>
        <mxCell id="4BYogz1DlvUj1lyPhDPs-2" value="Order Service" style="rounded=0;whiteSpace=wrap;html=1;" vertex="1" parent="1">
          <mxGeometry x="2020" y="410" width="120" height="60" as="geometry" />
        </mxCell>
        <mxCell id="4BYogz1DlvUj1lyPhDPs-3" value="NoSQL" style="shape=cylinder3;whiteSpace=wrap;html=1;boundedLbl=1;backgroundOutline=1;size=15;" vertex="1" parent="1">
          <mxGeometry x="2610" y="338" width="60" height="80" as="geometry" />
        </mxCell>
        <mxCell id="4BYogz1DlvUj1lyPhDPs-5" style="edgeStyle=orthogonalEdgeStyle;rounded=0;orthogonalLoop=1;jettySize=auto;html=1;exitX=1;exitY=0.5;exitDx=0;exitDy=0;entryX=0;entryY=0.5;entryDx=0;entryDy=0;entryPerimeter=0;" edge="1" parent="1" source="4BYogz1DlvUj1lyPhDPs-2" target="4BYogz1DlvUj1lyPhDPs-3">
          <mxGeometry relative="1" as="geometry" />
        </mxCell>
        <mxCell id="4BYogz1DlvUj1lyPhDPs-6" style="edgeStyle=orthogonalEdgeStyle;rounded=0;orthogonalLoop=1;jettySize=auto;html=1;exitX=0.75;exitY=1;exitDx=0;exitDy=0;entryX=0.855;entryY=1;entryDx=0;entryDy=-4.35;entryPerimeter=0;" edge="1" parent="1" source="4BYogz1DlvUj1lyPhDPs-2" target="vXUDVahpjEWt88McgdD0-21">
          <mxGeometry relative="1" as="geometry" />
        </mxCell>
        <mxCell id="4BYogz1DlvUj1lyPhDPs-15" value="" style="edgeStyle=orthogonalEdgeStyle;rounded=0;orthogonalLoop=1;jettySize=auto;html=1;" edge="1" parent="1" source="4BYogz1DlvUj1lyPhDPs-8" target="4BYogz1DlvUj1lyPhDPs-9">
          <mxGeometry relative="1" as="geometry" />
        </mxCell>
        <mxCell id="4BYogz1DlvUj1lyPhDPs-8" value="Plan" style="rounded=0;whiteSpace=wrap;html=1;" vertex="1" parent="1">
          <mxGeometry x="3160" y="283" width="120" height="60" as="geometry" />
        </mxCell>
        <mxCell id="4BYogz1DlvUj1lyPhDPs-16" value="" style="edgeStyle=orthogonalEdgeStyle;rounded=0;orthogonalLoop=1;jettySize=auto;html=1;" edge="1" parent="1" source="4BYogz1DlvUj1lyPhDPs-9" target="4BYogz1DlvUj1lyPhDPs-10">
          <mxGeometry relative="1" as="geometry" />
        </mxCell>
        <mxCell id="4BYogz1DlvUj1lyPhDPs-9" value="Code" style="rounded=0;whiteSpace=wrap;html=1;" vertex="1" parent="1">
          <mxGeometry x="3320" y="280" width="120" height="60" as="geometry" />
        </mxCell>
        <mxCell id="4BYogz1DlvUj1lyPhDPs-17" value="" style="edgeStyle=orthogonalEdgeStyle;rounded=0;orthogonalLoop=1;jettySize=auto;html=1;" edge="1" parent="1" source="4BYogz1DlvUj1lyPhDPs-10" target="4BYogz1DlvUj1lyPhDPs-11">
          <mxGeometry relative="1" as="geometry" />
        </mxCell>
        <mxCell id="4BYogz1DlvUj1lyPhDPs-10" value="Build" style="rounded=0;whiteSpace=wrap;html=1;" vertex="1" parent="1">
          <mxGeometry x="3480" y="278" width="120" height="60" as="geometry" />
        </mxCell>
        <mxCell id="4BYogz1DlvUj1lyPhDPs-18" value="" style="edgeStyle=orthogonalEdgeStyle;rounded=0;orthogonalLoop=1;jettySize=auto;html=1;" edge="1" parent="1" source="4BYogz1DlvUj1lyPhDPs-11" target="4BYogz1DlvUj1lyPhDPs-12">
          <mxGeometry relative="1" as="geometry" />
        </mxCell>
        <mxCell id="4BYogz1DlvUj1lyPhDPs-11" value="Test" style="rounded=0;whiteSpace=wrap;html=1;" vertex="1" parent="1">
          <mxGeometry x="3640" y="278" width="120" height="60" as="geometry" />
        </mxCell>
        <mxCell id="4BYogz1DlvUj1lyPhDPs-19" value="" style="edgeStyle=orthogonalEdgeStyle;rounded=0;orthogonalLoop=1;jettySize=auto;html=1;" edge="1" parent="1" source="4BYogz1DlvUj1lyPhDPs-12" target="4BYogz1DlvUj1lyPhDPs-13">
          <mxGeometry relative="1" as="geometry" />
        </mxCell>
        <mxCell id="4BYogz1DlvUj1lyPhDPs-12" value="Release" style="rounded=0;whiteSpace=wrap;html=1;" vertex="1" parent="1">
          <mxGeometry x="3800" y="278" width="120" height="60" as="geometry" />
        </mxCell>
        <mxCell id="4BYogz1DlvUj1lyPhDPs-20" value="" style="edgeStyle=orthogonalEdgeStyle;rounded=0;orthogonalLoop=1;jettySize=auto;html=1;" edge="1" parent="1" source="4BYogz1DlvUj1lyPhDPs-13" target="4BYogz1DlvUj1lyPhDPs-14">
          <mxGeometry relative="1" as="geometry" />
        </mxCell>
        <mxCell id="4BYogz1DlvUj1lyPhDPs-13" value="Deploy" style="rounded=0;whiteSpace=wrap;html=1;" vertex="1" parent="1">
          <mxGeometry x="3960" y="278" width="120" height="60" as="geometry" />
        </mxCell>
        <mxCell id="4BYogz1DlvUj1lyPhDPs-14" value="Monitor" style="rounded=0;whiteSpace=wrap;html=1;" vertex="1" parent="1">
          <mxGeometry x="4120" y="275" width="120" height="60" as="geometry" />
        </mxCell>
        <mxCell id="4BYogz1DlvUj1lyPhDPs-23" value="Actor" style="shape=umlActor;verticalLabelPosition=bottom;verticalAlign=top;html=1;outlineConnect=0;" vertex="1" parent="1">
          <mxGeometry x="3010" y="-480" width="30" height="60" as="geometry" />
        </mxCell>
        <mxCell id="4BYogz1DlvUj1lyPhDPs-25" value="API Gateway" style="rounded=0;whiteSpace=wrap;html=1;" vertex="1" parent="1">
          <mxGeometry x="3120" y="-590" width="120" height="310" as="geometry" />
        </mxCell>
        <mxCell id="4BYogz1DlvUj1lyPhDPs-27" value="" style="endArrow=classic;startArrow=classic;html=1;rounded=0;" edge="1" parent="1">
          <mxGeometry width="50" height="50" relative="1" as="geometry">
            <mxPoint x="3050" y="-440" as="sourcePoint" />
            <mxPoint x="3120" y="-440" as="targetPoint" />
          </mxGeometry>
        </mxCell>
        <mxCell id="4BYogz1DlvUj1lyPhDPs-28" value="Product Detail Service" style="rounded=0;whiteSpace=wrap;html=1;" vertex="1" parent="1">
          <mxGeometry x="3560" y="-720" width="120" height="60" as="geometry" />
        </mxCell>
        <mxCell id="4BYogz1DlvUj1lyPhDPs-29" value="Price Service" style="rounded=0;whiteSpace=wrap;html=1;" vertex="1" parent="1">
          <mxGeometry x="3560" y="-600" width="120" height="60" as="geometry" />
        </mxCell>
        <mxCell id="4BYogz1DlvUj1lyPhDPs-30" value="Product Service" style="rounded=0;whiteSpace=wrap;html=1;" vertex="1" parent="1">
          <mxGeometry x="3400" y="-490" width="120" height="60" as="geometry" />
        </mxCell>
        <mxCell id="4BYogz1DlvUj1lyPhDPs-31" value="Cart Service" style="rounded=0;whiteSpace=wrap;html=1;" vertex="1" parent="1">
          <mxGeometry x="3550" y="-360" width="120" height="60" as="geometry" />
        </mxCell>
        <mxCell id="4BYogz1DlvUj1lyPhDPs-32" value="Order Service" style="rounded=0;whiteSpace=wrap;html=1;" vertex="1" parent="1">
          <mxGeometry x="3400" y="-250" width="120" height="60" as="geometry" />
        </mxCell>
        <mxCell id="4BYogz1DlvUj1lyPhDPs-33" value="Notification Service" style="rounded=0;whiteSpace=wrap;html=1;" vertex="1" parent="1">
          <mxGeometry x="4080" y="-440" width="120" height="60" as="geometry" />
        </mxCell>
        <mxCell id="4BYogz1DlvUj1lyPhDPs-35" value="NoSQL" style="shape=cylinder3;whiteSpace=wrap;html=1;boundedLbl=1;backgroundOutline=1;size=15;" vertex="1" parent="1">
          <mxGeometry x="3760" y="-850" width="60" height="80" as="geometry" />
        </mxCell>
        <mxCell id="4BYogz1DlvUj1lyPhDPs-36" value="SQL" style="shape=cylinder3;whiteSpace=wrap;html=1;boundedLbl=1;backgroundOutline=1;size=15;" vertex="1" parent="1">
          <mxGeometry x="3880" y="-690" width="60" height="80" as="geometry" />
        </mxCell>
        <mxCell id="4BYogz1DlvUj1lyPhDPs-37" value="Kafka" style="shape=cylinder3;whiteSpace=wrap;html=1;boundedLbl=1;backgroundOutline=1;size=15;rotation=90;" vertex="1" parent="1">
          <mxGeometry x="3910" y="-450" width="60" height="80" as="geometry" />
        </mxCell>
        <mxCell id="4BYogz1DlvUj1lyPhDPs-38" value="NoSQL" style="shape=cylinder3;whiteSpace=wrap;html=1;boundedLbl=1;backgroundOutline=1;size=15;" vertex="1" parent="1">
          <mxGeometry x="3880" y="-310" width="60" height="80" as="geometry" />
        </mxCell>
        <mxCell id="4BYogz1DlvUj1lyPhDPs-39" value="SQL" style="shape=cylinder3;whiteSpace=wrap;html=1;boundedLbl=1;backgroundOutline=1;size=15;" vertex="1" parent="1">
          <mxGeometry x="3880" y="-170" width="60" height="80" as="geometry" />
        </mxCell>
        <mxCell id="4BYogz1DlvUj1lyPhDPs-40" value="Inventory Service" style="rounded=0;whiteSpace=wrap;html=1;" vertex="1" parent="1">
          <mxGeometry x="3600" y="-160" width="120" height="60" as="geometry" />
        </mxCell>
        <mxCell id="4BYogz1DlvUj1lyPhDPs-42" value="" style="endArrow=classic;startArrow=classic;html=1;rounded=0;exitX=0.651;exitY=-0.031;exitDx=0;exitDy=0;exitPerimeter=0;" edge="1" parent="1" source="4BYogz1DlvUj1lyPhDPs-30">
          <mxGeometry width="50" height="50" relative="1" as="geometry">
            <mxPoint x="3610" y="-350" as="sourcePoint" />
            <mxPoint x="3560" y="-680" as="targetPoint" />
            <Array as="points">
              <mxPoint x="3480" y="-680" />
            </Array>
          </mxGeometry>
        </mxCell>
        <mxCell id="4BYogz1DlvUj1lyPhDPs-45" value="" style="endArrow=classic;startArrow=classic;html=1;rounded=0;entryX=0.66;entryY=1.08;entryDx=0;entryDy=0;entryPerimeter=0;" edge="1" parent="1" target="4BYogz1DlvUj1lyPhDPs-30">
          <mxGeometry width="50" height="50" relative="1" as="geometry">
            <mxPoint x="3550" y="-350" as="sourcePoint" />
            <mxPoint x="3660" y="-400" as="targetPoint" />
            <Array as="points">
              <mxPoint x="3479" y="-350" />
            </Array>
          </mxGeometry>
        </mxCell>
        <mxCell id="4BYogz1DlvUj1lyPhDPs-46" value="" style="endArrow=classic;startArrow=classic;html=1;rounded=0;entryX=0;entryY=0.5;entryDx=0;entryDy=0;exitX=0.75;exitY=0;exitDx=0;exitDy=0;" edge="1" parent="1" source="4BYogz1DlvUj1lyPhDPs-32">
          <mxGeometry width="50" height="50" relative="1" as="geometry">
            <mxPoint x="3410" y="-320" as="sourcePoint" />
            <mxPoint x="3550" y="-320" as="targetPoint" />
            <Array as="points">
              <mxPoint x="3490" y="-320" />
            </Array>
          </mxGeometry>
        </mxCell>
        <mxCell id="4BYogz1DlvUj1lyPhDPs-47" value="" style="endArrow=classic;startArrow=classic;html=1;rounded=0;exitX=0.384;exitY=0.014;exitDx=0;exitDy=0;exitPerimeter=0;" edge="1" parent="1" source="4BYogz1DlvUj1lyPhDPs-40">
          <mxGeometry width="50" height="50" relative="1" as="geometry">
            <mxPoint x="3640" y="-200" as="sourcePoint" />
            <mxPoint x="3646" y="-300" as="targetPoint" />
          </mxGeometry>
        </mxCell>
        <mxCell id="4BYogz1DlvUj1lyPhDPs-50" value="SQL" style="shape=cylinder3;whiteSpace=wrap;html=1;boundedLbl=1;backgroundOutline=1;size=15;" vertex="1" parent="1">
          <mxGeometry x="3430" y="-90" width="60" height="80" as="geometry" />
        </mxCell>
        <mxCell id="4BYogz1DlvUj1lyPhDPs-54" value="SQL" style="shape=cylinder3;whiteSpace=wrap;html=1;boundedLbl=1;backgroundOutline=1;size=15;" vertex="1" parent="1">
          <mxGeometry x="3300" y="-810" width="60" height="80" as="geometry" />
        </mxCell>
        <mxCell id="4BYogz1DlvUj1lyPhDPs-56" value="" style="endArrow=classic;startArrow=classic;html=1;rounded=0;exitX=0.5;exitY=0;exitDx=0;exitDy=0;exitPerimeter=0;entryX=0;entryY=0.5;entryDx=0;entryDy=0;" edge="1" parent="1" source="4BYogz1DlvUj1lyPhDPs-37" target="4BYogz1DlvUj1lyPhDPs-33">
          <mxGeometry width="50" height="50" relative="1" as="geometry">
            <mxPoint x="4070" y="-180" as="sourcePoint" />
            <mxPoint x="4070" y="-410" as="targetPoint" />
          </mxGeometry>
        </mxCell>
        <mxCell id="4BYogz1DlvUj1lyPhDPs-57" value="" style="endArrow=classic;startArrow=classic;html=1;rounded=0;entryX=0.5;entryY=1;entryDx=0;entryDy=0;entryPerimeter=0;exitX=1;exitY=0.25;exitDx=0;exitDy=0;" edge="1" parent="1" source="4BYogz1DlvUj1lyPhDPs-28" target="4BYogz1DlvUj1lyPhDPs-35">
          <mxGeometry width="50" height="50" relative="1" as="geometry">
            <mxPoint x="3620" y="-450" as="sourcePoint" />
            <mxPoint x="3670" y="-500" as="targetPoint" />
            <Array as="points">
              <mxPoint x="3790" y="-705" />
            </Array>
          </mxGeometry>
        </mxCell>
        <mxCell id="4BYogz1DlvUj1lyPhDPs-58" value="" style="endArrow=classic;startArrow=classic;html=1;rounded=0;entryX=0;entryY=0.5;entryDx=0;entryDy=0;entryPerimeter=0;exitX=1;exitY=0.25;exitDx=0;exitDy=0;" edge="1" parent="1" source="4BYogz1DlvUj1lyPhDPs-29" target="4BYogz1DlvUj1lyPhDPs-36">
          <mxGeometry width="50" height="50" relative="1" as="geometry">
            <mxPoint x="3620" y="-450" as="sourcePoint" />
            <mxPoint x="3670" y="-500" as="targetPoint" />
            <Array as="points">
              <mxPoint x="3860" y="-585" />
              <mxPoint x="3860" y="-650" />
            </Array>
          </mxGeometry>
        </mxCell>
        <mxCell id="4BYogz1DlvUj1lyPhDPs-59" value="" style="endArrow=classic;startArrow=classic;html=1;rounded=0;exitX=1.003;exitY=0.431;exitDx=0;exitDy=0;exitPerimeter=0;" edge="1" parent="1" source="4BYogz1DlvUj1lyPhDPs-25">
          <mxGeometry width="50" height="50" relative="1" as="geometry">
            <mxPoint x="3250" y="-460" as="sourcePoint" />
            <mxPoint x="3400" y="-456" as="targetPoint" />
            <Array as="points">
              <mxPoint x="3310" y="-456" />
            </Array>
          </mxGeometry>
        </mxCell>
        <mxCell id="4BYogz1DlvUj1lyPhDPs-61" value="" style="endArrow=classic;startArrow=classic;html=1;rounded=0;entryX=0;entryY=0;entryDx=0;entryDy=52.5;entryPerimeter=0;exitX=1;exitY=0.75;exitDx=0;exitDy=0;" edge="1" parent="1" source="4BYogz1DlvUj1lyPhDPs-31" target="4BYogz1DlvUj1lyPhDPs-38">
          <mxGeometry width="50" height="50" relative="1" as="geometry">
            <mxPoint x="3620" y="-370" as="sourcePoint" />
            <mxPoint x="3670" y="-420" as="targetPoint" />
            <Array as="points">
              <mxPoint x="3720" y="-315" />
              <mxPoint x="3720" y="-257" />
            </Array>
          </mxGeometry>
        </mxCell>
        <mxCell id="4BYogz1DlvUj1lyPhDPs-66" value="" style="endArrow=classic;startArrow=classic;html=1;rounded=0;entryX=1;entryY=0;entryDx=0;entryDy=52.5;entryPerimeter=0;" edge="1" parent="1" target="4BYogz1DlvUj1lyPhDPs-54">
          <mxGeometry width="50" height="50" relative="1" as="geometry">
            <mxPoint x="3440" y="-490" as="sourcePoint" />
            <mxPoint x="3350" y="-730" as="targetPoint" />
            <Array as="points">
              <mxPoint x="3440" y="-760" />
            </Array>
          </mxGeometry>
        </mxCell>
        <mxCell id="4BYogz1DlvUj1lyPhDPs-67" style="edgeStyle=orthogonalEdgeStyle;rounded=0;orthogonalLoop=1;jettySize=auto;html=1;exitX=1;exitY=0.75;exitDx=0;exitDy=0;entryX=0.5;entryY=1;entryDx=0;entryDy=0;entryPerimeter=0;" edge="1" parent="1" source="4BYogz1DlvUj1lyPhDPs-29" target="4BYogz1DlvUj1lyPhDPs-37">
          <mxGeometry relative="1" as="geometry" />
        </mxCell>
        <mxCell id="4BYogz1DlvUj1lyPhDPs-68" style="edgeStyle=orthogonalEdgeStyle;rounded=0;orthogonalLoop=1;jettySize=auto;html=1;exitX=1;exitY=0.75;exitDx=0;exitDy=0;entryX=0.855;entryY=1;entryDx=0;entryDy=-4.35;entryPerimeter=0;" edge="1" parent="1" source="4BYogz1DlvUj1lyPhDPs-30" target="4BYogz1DlvUj1lyPhDPs-37">
          <mxGeometry relative="1" as="geometry" />
        </mxCell>
        <mxCell id="4BYogz1DlvUj1lyPhDPs-69" style="edgeStyle=orthogonalEdgeStyle;rounded=0;orthogonalLoop=1;jettySize=auto;html=1;exitX=1;exitY=0.5;exitDx=0;exitDy=0;entryX=1;entryY=0;entryDx=0;entryDy=52.5;entryPerimeter=0;" edge="1" parent="1" source="4BYogz1DlvUj1lyPhDPs-31" target="4BYogz1DlvUj1lyPhDPs-37">
          <mxGeometry relative="1" as="geometry" />
        </mxCell>
        <mxCell id="4BYogz1DlvUj1lyPhDPs-71" value="" style="endArrow=classic;startArrow=classic;html=1;rounded=0;exitX=0;exitY=0.75;exitDx=0;exitDy=0;" edge="1" parent="1" source="4BYogz1DlvUj1lyPhDPs-29">
          <mxGeometry width="50" height="50" relative="1" as="geometry">
            <mxPoint x="3960" y="-400" as="sourcePoint" />
            <mxPoint x="3507" y="-490" as="targetPoint" />
            <Array as="points">
              <mxPoint x="3507" y="-555" />
            </Array>
          </mxGeometry>
        </mxCell>
        <mxCell id="4BYogz1DlvUj1lyPhDPs-75" value="" style="endArrow=classic;html=1;rounded=0;" edge="1" parent="1">
          <mxGeometry width="50" height="50" relative="1" as="geometry">
            <mxPoint x="3320" y="-455" as="sourcePoint" />
            <mxPoint x="3400" y="-205" as="targetPoint" />
            <Array as="points">
              <mxPoint x="3320" y="-315" />
              <mxPoint x="3320" y="-205" />
            </Array>
          </mxGeometry>
        </mxCell>
        <mxCell id="4BYogz1DlvUj1lyPhDPs-77" value="" style="endArrow=classic;startArrow=classic;html=1;rounded=0;exitX=1;exitY=0.5;exitDx=0;exitDy=0;entryX=0;entryY=0.5;entryDx=0;entryDy=0;entryPerimeter=0;" edge="1" parent="1" source="4BYogz1DlvUj1lyPhDPs-40" target="4BYogz1DlvUj1lyPhDPs-39">
          <mxGeometry width="50" height="50" relative="1" as="geometry">
            <mxPoint x="3830" y="-70" as="sourcePoint" />
            <mxPoint x="3880" y="-120" as="targetPoint" />
          </mxGeometry>
        </mxCell>
        <mxCell id="4BYogz1DlvUj1lyPhDPs-78" value="" style="endArrow=classic;startArrow=classic;html=1;rounded=0;exitX=0.5;exitY=0;exitDx=0;exitDy=0;exitPerimeter=0;" edge="1" parent="1" source="4BYogz1DlvUj1lyPhDPs-50">
          <mxGeometry width="50" height="50" relative="1" as="geometry">
            <mxPoint x="3410" y="-140" as="sourcePoint" />
            <mxPoint x="3460" y="-190" as="targetPoint" />
          </mxGeometry>
        </mxCell>
      </root>
    </mxGraphModel>
  </diagram>
</mxfile>
